<svg width="233" height="58" viewBox="0 0 233 58" fill="none" xmlns="http://www.w3.org/2000/svg">
<g clip-path="url(#clip0_56_1239)">
<path fill-rule="evenodd" clip-rule="evenodd" d="M14.93 8.77003L20.28 15.02L22.62 24.93L25.71 28.93L23.52 30.83L25.1 36.7L26.1 37.03L25.39 37.25L26.72 39.5L27.43 42.68L25.93 49.03L23.98 50.64V53.28L25.2 52.28L25.64 54.13C25.64 54.13 25.25 53.51 24.81 53.55C23.95 53.62 23.36 55.55 23.96 56.32C24.1701 56.6439 24.4461 56.9199 24.77 57.13H23.18V54.79C22.8385 55.0682 22.6137 55.4642 22.55 55.9C22.5054 56.3431 22.5427 56.7905 22.66 57.22L21.52 55.81L23.18 53.95V50.16L22.48 39.64L21.36 42.71L20.36 42.4L20.85 40.78L19.88 42.24L18.71 41.85L19.9 39.85L17.98 41.64L16.64 41.2L19.24 39.07L16.05 41L14.88 40.64L21.4 35.8L18.09 37.13C18.09 37.13 13.81 35.89 11.81 34.04C10.0922 32.5512 8.85063 30.5897 8.24 28.4C7.24 25.75 4.75 18.4 4.75 18.4L12.59 22.54L2.05 14.34L0.879997 11.73L7.32999 15.34L0.18 9.26003L0 7.64003L10.63 14.64L0.0799942 6.26003L0.169998 4.26003L14.46 15.26L0.879997 3.44003L0.969994 1.15002L17.35 15.15L3.49 2.15002L3.67 0.0300293L14.74 11.03L14.93 8.77003Z" fill="#41515A"/>
<path fill-rule="evenodd" clip-rule="evenodd" d="M38.3999 8.77003L33.0499 15.02L30.7199 24.93L27.6199 28.93L29.8099 30.83L28.2299 36.64L27.2299 36.97L28.0199 37.21L26.6899 39.44L26.9399 42.44L28.0199 44.92L30.3999 46.42V45.82L30.8799 39.64L31.9999 42.71L32.9999 42.4L32.5099 40.78L33.5799 42.21L34.7499 41.82L33.5599 39.82L35.4399 41.63L36.7799 41.19L34.1699 39.06L37.3599 40.99L38.4899 40.63L31.8799 35.79L35.1899 37.12C35.1899 37.12 39.4599 35.88 41.4599 34.03C43.1805 32.5417 44.4255 30.5804 45.0399 28.39C46.0399 25.74 48.5199 18.39 48.5199 18.39L40.6799 22.53L51.2199 14.33L52.4399 11.69L45.9999 15.3L53.1399 9.22003L53.3199 7.63004L42.6799 14.63L53.2299 6.25003L53.1399 4.25003L38.8499 15.25L52.4399 3.44003L52.3599 1.15002L35.9699 15.15L49.8299 2.15002L49.6599 0.0300293L38.59 11.03L38.3999 8.77003Z" fill="#41515A"/>
<path fill-rule="evenodd" clip-rule="evenodd" d="M30.4099 45.76V50.54H28.2099C28.2099 50.54 29.4699 50.22 29.7299 49.68C29.9899 49.14 30.0599 47.49 29.0499 47.49C28.85 47.505 28.6591 47.5798 28.5022 47.7046C28.3453 47.8294 28.2295 47.9985 28.1699 48.19V46.27L29.5899 47.1V45.39L30.4099 45.76Z" fill="#41515A"/>
<path d="M75.6602 35.93C76.1707 35.944 76.671 35.7855 77.0802 35.4801C77.4598 35.1964 77.7965 34.8596 78.0802 34.4801C78.4008 34.0286 78.6755 33.5462 78.9002 33.0401V24.7601L76.7402 24.2201V23.6801H87.0102V24.2201L84.8502 24.7601V36.82H84.3102C83.4409 36.856 82.5742 36.7024 81.7702 36.3701C81.2239 36.1335 80.7282 35.794 80.3102 35.3701C79.914 34.9628 79.6164 34.4702 79.4402 33.93C79.1405 34.5324 78.7416 35.08 78.2602 35.5501C77.7803 36.0082 77.23 36.3863 76.6302 36.6701C75.8762 37.0204 75.0513 37.1915 74.2202 37.1701C72.8891 37.1716 71.5741 36.8779 70.3702 36.3101C69.1218 35.7127 68.0219 34.8451 67.1502 33.7701C66.1632 32.5443 65.4168 31.143 64.9502 29.6401C64.3826 27.8252 64.1092 25.9313 64.1402 24.0301C64.1047 22.1238 64.3852 20.2247 64.9702 18.4101C65.4558 16.8892 66.2527 15.4861 67.3102 14.2901C68.3018 13.1811 69.533 12.3125 70.9102 11.7501C72.3737 11.1563 73.941 10.8605 75.5202 10.8801C76.3095 10.8737 77.0942 11.0022 77.8402 11.2601C78.4705 11.4735 79.0797 11.7447 79.6602 12.07C80.2323 12.3868 80.763 12.773 81.2402 13.2201C81.4291 12.9248 81.6397 12.6441 81.8702 12.3801C82.0648 12.1552 82.2754 11.9447 82.5002 11.7501C82.7281 11.5636 82.9687 11.3932 83.2202 11.2401H84.1302V18.0801H82.6802C82.3676 16.9744 81.896 15.9201 81.2802 14.9501C80.7418 14.1154 80.0655 13.3782 79.2802 12.7701C78.4057 12.0944 77.3249 11.7412 76.2202 11.7701C75.4727 11.7774 74.7407 11.9845 74.1002 12.3701C73.3115 12.8572 72.6689 13.5481 72.2402 14.3701C71.6181 15.5561 71.1829 16.8311 70.9502 18.1501C70.5906 20.082 70.4265 22.0452 70.4602 24.0101C70.4266 25.9558 70.5705 27.9005 70.8902 29.82C71.0935 31.0857 71.488 32.313 72.0602 33.4601C72.4348 34.2332 73.0164 34.8874 73.7402 35.3501C74.3171 35.711 74.98 35.9112 75.6602 35.93Z" fill="#41515A"/>
<path d="M105.44 11.4401V11.9801L103.28 12.5201V35.7501H111.03C111.014 34.9191 111.136 34.0913 111.39 33.3001C111.593 32.6879 111.857 32.0981 112.18 31.5401C112.487 31.0123 112.891 30.5474 113.37 30.1701H114.45V36.6401H95.1802V36.1001L97.3402 35.5601V12.5201L95.1802 11.9801V11.4401H105.44Z" fill="#41515A"/>
<path d="M145.31 24.05C145.343 25.9544 145.056 27.8509 144.46 29.66C143.964 31.1858 143.157 32.5921 142.09 33.79C141.061 34.9019 139.797 35.7698 138.39 36.33C135.303 37.4769 131.907 37.4769 128.82 36.33C127.41 35.7746 126.145 34.9061 125.12 33.79C124.053 32.5921 123.246 31.1858 122.75 29.66C121.618 26.0022 121.618 22.0879 122.75 18.43C123.246 16.9072 124.053 15.5042 125.12 14.31C126.14 13.1877 127.406 12.3181 128.82 11.77C131.905 10.6097 135.306 10.6097 138.39 11.77C139.801 12.3229 141.067 13.1918 142.09 14.31C143.157 15.5042 143.964 16.9072 144.46 18.43C145.057 20.2424 145.344 22.1423 145.31 24.05ZM139.01 24.05C139.043 22.0388 138.878 20.0293 138.52 18.05C138.289 16.7155 137.865 15.4219 137.26 14.21C136.862 13.4012 136.259 12.7114 135.51 12.21C134.952 11.8189 134.287 11.6091 133.605 11.6091C132.923 11.6091 132.258 11.8189 131.7 12.21C130.951 12.7114 130.348 13.4012 129.95 14.21C129.345 15.4219 128.921 16.7155 128.69 18.05C128.037 21.9965 128.037 26.0236 128.69 29.97C128.922 31.301 129.347 32.5912 129.95 33.8C130.352 34.606 130.955 35.2948 131.7 35.8C132.261 36.1844 132.925 36.3901 133.605 36.3901C134.285 36.3901 134.949 36.1844 135.51 35.8C136.256 35.2948 136.858 34.606 137.26 33.8C137.863 32.5912 138.288 31.301 138.52 29.97C138.872 28.0169 139.037 26.0345 139.01 24.05Z" fill="#41515A"/>
<path d="M165.58 10.9C166.369 10.8926 167.154 11.0212 167.9 11.28C168.53 11.4935 169.14 11.7646 169.72 12.09C170.294 12.4092 170.827 12.7952 171.31 13.24C171.492 12.9403 171.703 12.659 171.94 12.4C172.135 12.1752 172.345 11.9646 172.57 11.77C172.798 11.5836 173.039 11.4131 173.29 11.26H174.19V18.1H172.75C172.43 16.9955 171.955 15.9417 171.34 14.97C170.802 14.1347 170.126 13.3974 169.34 12.79C168.466 12.1144 167.385 11.7612 166.28 11.79C165.53 11.7984 164.795 12.0054 164.15 12.39C163.367 12.8808 162.728 13.5711 162.3 14.39C161.678 15.5771 161.24 16.8516 161 18.17C160.645 20.1026 160.481 22.0653 160.51 24.03C160.475 25.9991 160.646 27.9665 161.02 29.9C161.263 31.2256 161.737 32.4983 162.42 33.66C162.929 34.5127 163.667 35.2056 164.55 35.66C165.371 36.0536 166.27 36.2553 167.18 36.25C168.038 36.2491 168.885 36.0578 169.66 35.69C170.455 35.3184 171.176 34.8069 171.79 34.18C172.41 33.5458 172.914 32.8081 173.28 32C173.651 31.1869 173.842 30.3035 173.84 29.41H174.74C174.743 30.427 174.528 31.4328 174.11 32.36C173.697 33.2914 173.102 34.1311 172.36 34.83C170.764 36.3326 168.652 37.1634 166.46 37.15C164.715 37.1744 162.981 36.883 161.34 36.29C159.883 35.7422 158.567 34.8742 157.49 33.75C156.39 32.5659 155.561 31.1566 155.06 29.62C154.464 27.8108 154.177 25.9144 154.21 24.01C154.18 22.104 154.46 20.2058 155.04 18.39C155.526 16.8691 156.323 15.466 157.38 14.27C158.372 13.1611 159.603 12.2925 160.98 11.73C162.443 11.1512 164.007 10.869 165.58 10.9Z" fill="#41515A"/>
<path d="M186.88 36.11V36.64H180.21V36.1L183.09 35.02L193 11.0699H194.08L204.34 35.56L206.14 36.1V36.64H201.82C200.69 36.701 199.572 36.3766 198.65 35.72C197.925 35.1803 197.35 34.4643 196.98 33.64L195.15 29.3199H186.54L184.16 35.08L186.88 36.11ZM186.88 28.3699H194.77L190.77 18.8999L186.88 28.3699Z" fill="#41515A"/>
<path d="M223.13 11.4401V11.9801L220.97 12.5201V35.7501H228.71C228.694 34.9191 228.816 34.0913 229.07 33.3001C229.272 32.6879 229.537 32.0981 229.86 31.5401C230.17 31.0146 230.573 30.5503 231.05 30.1701H232.13V36.6401H212.88V36.1001L215.04 35.5601V12.5201L212.88 11.9801V11.4401H223.13Z" fill="#41515A"/>
<path d="M99.71 43.92H101.63V48.64H105.96V50.26H99.71V43.92Z" fill="#8F9194"/>
<path d="M114.38 43.92H121.25V45.38H116.31V46.38H120.99V47.6801H116.31V48.6801H121.31V50.19H114.31L114.38 43.92Z" fill="#8F9194"/>
<path d="M132.88 43.92H135.38L138.83 50.2101H136.69L136.09 49.1H132.19L131.63 50.2101H129.48L132.88 43.92ZM132.88 47.7401H135.34L134.1 45.38L132.88 47.7401Z" fill="#8F9194"/>
<path d="M146.07 43.92H153.4V45.4901H150.7V50.2101H148.77V45.4901H146.07V43.92Z" fill="#8F9194"/>
<path d="M161.88 43.92H163.8V46.16H167.88V43.92H169.8V50.2101H167.88V47.83H163.78V50.2101H161.88V43.92Z" fill="#8F9194"/>
<path d="M178.67 43.92H185.54V45.38H180.6V46.38H185.28V47.6801H180.6V48.6801H185.6V50.19H178.6L178.67 43.92Z" fill="#8F9194"/>
<path d="M194.43 43.92H200.23C201.72 43.92 202.11 44.66 202.11 45.79V46.19C202.11 47.03 201.92 47.53 201.04 47.73C201.61 47.84 202.04 48.0901 202.04 49.1201V50.19H200.11V49.4301C200.11 48.7701 199.92 48.5601 199.33 48.5601H196.33V50.19H194.41L194.43 43.92ZM196.35 47.01H199.53C200.05 47.01 200.24 46.81 200.24 46.35V46.1501C200.24 45.5901 199.97 45.4901 199.36 45.4901H196.36L196.35 47.01Z" fill="#8F9194"/>
</g>
<defs>
<clipPath id="clip0_56_1239">
<rect width="232.14" height="57.22" fill="white"/>
</clipPath>
</defs>
</svg>
